<?xml version="1.0" standalone="no"?>
<!DOCTYPE svg PUBLIC "-//W3C//DTD SVG 20010904//EN"
 "http://www.w3.org/TR/2001/REC-SVG-20010904/DTD/svg10.dtd">
<svg version="1.0" xmlns="http://www.w3.org/2000/svg"
 width="332.000000pt" height="332.000000pt" viewBox="0 0 332.000000 332.000000"
 preserveAspectRatio="xMidYMid meet">
<metadata>
Created by potrace 1.14, written by Peter Selinger 2001-2017
</metadata>
<g transform="translate(0.000000,332.000000) scale(0.100000,-0.100000)"
fill="#000000" stroke="none">
<path d="M1470 3309 c-30 -4 -75 -10 -100 -14 -74 -11 -257 -65 -339 -100
-177 -75 -340 -174 -447 -270 -216 -193 -365 -401 -463 -645 -41 -101 -85
-255 -96 -335 -4 -22 -9 -51 -12 -65 -3 -14 -7 -101 -8 -195 -5 -347 75 -630
261 -927 110 -175 341 -403 514 -507 171 -102 408 -195 565 -221 133 -22 166
-25 305 -25 221 0 338 17 520 76 483 156 872 530 1049 1010 102 277 125 595
66 919 -14 78 -89 287 -137 383 -46 92 -127 226 -153 253 -5 6 -21 27 -35 47
-29 42 -216 228 -275 273 -56 43 -137 99 -155 107 -8 4 -31 17 -50 29 -96 59
-249 122 -382 158 -78 21 -98 26 -153 35 -16 3 -43 8 -60 11 -49 9 -355 12
-415 3z"/>
</g>
</svg>
